<?xml version="1.0" standalone="no"?>
<!DOCTYPE svg PUBLIC "-//W3C//DTD SVG 1.1//EN" "http://www.w3.org/Graphics/SVG/1.1/DTD/svg11.dtd" >
<svg xmlns="http://www.w3.org/2000/svg" xmlns:xlink="http://www.w3.org/1999/xlink" version="1.1">
<metadata>
Created by FontForge 20161116 at Mon Feb 24 19:48:37 2003
 By Jimmy Wärting
BoltonBros.Com (c) 2001, (c) 2003
</metadata>
<defs>
<font id="Godfather" horiz-adv-x="390" >
  <font-face 
    font-family="The Godfather"
    font-weight="400"
    font-stretch="normal"
    units-per-em="2048"
    panose-1="2 0 0 0 0 0 0 0 0 0"
    ascent="1638"
    descent="-410"
    x-height="929"
    cap-height="1447"
    bbox="-300 -452 1488 1854"
    underline-thickness="48"
    underline-position="-188"
    unicode-range="U+0020-00A0"
  />
<missing-glyph horiz-adv-x="1024" 
d="M128 0v1854h768v-1854h-768zM256 128h512v1598h-512v-1598z" />
    <glyph glyph-name=".notdef" horiz-adv-x="1024" 
d="M128 0v1854h768v-1854h-768zM256 128h512v1598h-512v-1598z" />
    <glyph glyph-name=".null" horiz-adv-x="0" 
 />
    <glyph glyph-name="nonmarkingreturn" 
 />
    <glyph glyph-name="space" unicode=" " 
 />
    <glyph glyph-name="exclam" unicode="!" horiz-adv-x="249" 
 />
    <glyph glyph-name="quotedbl" unicode="&#x22;" horiz-adv-x="522" 
d="M303 1105l209 -125l-80 322l-212 47q137 -117 83 -244zM68 1135l209 -125l-80 322l-212 47q137 -117 83 -244z" />
    <glyph glyph-name="numbersign" unicode="#" horiz-adv-x="636" 
 />
    <glyph glyph-name="dollar" unicode="$" horiz-adv-x="636" 
 />
    <glyph glyph-name="percent" unicode="%" horiz-adv-x="636" 
 />
    <glyph glyph-name="ampersand" unicode="&#x26;" horiz-adv-x="486" 
 />
    <glyph glyph-name="quotesingle" unicode="'" horiz-adv-x="160" 
d="M68 1135l209 -125l-80 322l-212 47q137 -117 83 -244z" />
    <glyph glyph-name="parenleft" unicode="(" horiz-adv-x="336" 
 />
    <glyph glyph-name="parenright" unicode=")" horiz-adv-x="384" 
 />
    <glyph glyph-name="asterisk" unicode="*" horiz-adv-x="1449" 
d="M519 1842l22 -66v-156l-177 -177l-37 -30l-22 -22l-30 -36v-45h-111l-22 23h-24l-20 -23l-22 -22l-23 -22l-44 -44l22 -22l-22 22l22 -22h45l110 -23l45 -22l44 -44h22l22 -22h23l22 -22h22l22 -22v-45h-44l-22 -22l-23 -22l-110 -111l22 -22h66l22 -22h67l22 22h22
l22 22l23 22l22 23l89 88h44v-22l89 -89h66l22 23l22 -23l23 -22h22l44 22v-642l22 22v643h45l44 44h22l22 22l23 22l22 22h177l22 -22l22 22h23v-775l22 22v665l22 22v88l-22 23v44h22v44h-44l-23 22h-133v45l-2 288h2l-22 22l45 22v22l-23 22l-66 22h-67l-44 -44v44
l-22 22v222h-67v-244l23 -44l22 -22v-44l22 -23l22 -22h22v-44l22 -22v-22l23 -22v-156l-23 23h-110l-23 22h-111l-22 -22v-133h89v-22l-22 -23l-22 -22l-23 -22l-44 -44h-22l-22 -22l-22 22l-23 22l-44 44v22l-22 23l22 22v110l22 23v44h-44v-44l-22 -23h-22l-23 -22
l-88 -88h-23l-22 22l22 22l23 22l22 44l22 23v44h22l22 22v22h-44l-44 -44l-23 -22v-45l-66 -66v44l22 22v67l22 22l-22 67v-45h-22v-66l-22 -22v-23l-22 -22l-23 -22v133l23 22v67l44 44l18 21l48 23l23 45l111 110v222l-23 22h-44zM1162 1488l22 -23v-288h-44v89l-22 22
v155l22 22zM31 1177v-553h22v553h-22zM963 1045h66l22 -23l-66 -66h-89v22zM1184 225h22v687l-22 66v-753zM940 934l-22 -22v-22l-44 -23v67h66zM630 912v-288l22 22v22l12 44v133l10 45l-22 22h-22zM319 779v-355l20 -27l3 72v243z" />
    <glyph glyph-name="plus" unicode="+" horiz-adv-x="636" 
 />
    <glyph glyph-name="comma" unicode="," horiz-adv-x="285" 
d="M65 78q-2 -184 -112 -307q376 -17 335 391h-56z" />
    <glyph glyph-name="hyphen" horiz-adv-x="471" 
 />
    <glyph glyph-name="period" unicode="." horiz-adv-x="295" 
d="M40 107q0 44 33 77.5t76 33.5t72 -31.5t29 -78.5q0 -48 -31 -80t-74 -32q-42 0 -73.5 33t-31.5 78z" />
    <glyph glyph-name="slash" unicode="/" horiz-adv-x="357" 
d="M-40 31l-49 -60h57h22h146l509 1298l44 41h-233z" />
    <glyph glyph-name="zero" unicode="0" horiz-adv-x="675" 
d="M56 1451l-28 -26l-12 -37l-1 -43l2 -1281l26 -42l38 -22h474l38 18l21 25l8 37l1 1326l-16 26l-26 19l-18 11h-468zM256 1200l131 4l25 -56l1 -30l3 -825l-30 -33h-128l-31 29l1 854z" />
    <glyph glyph-name="one" unicode="1" horiz-adv-x="425" 
d="M117 1067v0l-1 -935l-59 -56v-76h340v73l-60 53v1349h-94l-259 -216l95 -24l38 -70v-98z" />
    <glyph glyph-name="two" unicode="2" horiz-adv-x="817" 
d="M0 77v576l224 164l142 78l118 72l3 240l-51 37h-77l-54 -48l-1 -190l-304 -144v498l92 71l111 50l163 20h120l129 -20l152 -113v-475l-59 -62l-130 -73l-206 -128l-62 -118l1 -244l77 -73l155 2l-1 114l225 98v-307l-59 -103h-631z" />
    <glyph glyph-name="three" unicode="3" horiz-adv-x="798" 
d="M736 164q0 -54 -114 -116q-95 -50 -117 -50h-288q-29 0 -114 50q-98 58 -96 101v382l271 -142v-199q37 -38 40 -40q19 -13 53 -13q90 0 92 71v437h-420v42l192 103q-5 0 111 0q49 0 117 -3l-1 486q0 32 -26.5 52t-64.5 20q-43 0 -93 -54v-199l-271 -142v382
q-2 57 113 109q93 42 134 42h215q52 0 154 -54q113 -60 113 -112v-1153z" />
    <glyph glyph-name="four" unicode="4" horiz-adv-x="851" 
d="M810 850v-306q-14 26 -19 30q-10 5 -21 11h-35v-530l24 -53h-217q-39 36 -38 49v534h-436l-67 98v116l456 620h224q11 1 54 -51v-563h40q15 0 35 45zM502 806v343l-264 -343h264z" />
    <glyph glyph-name="five" unicode="5" horiz-adv-x="754" 
d="M33 1329v-612q-2 -54 6 -117q43 -49 65 -92h24h29h24h29h77h23h100h18h71v-264h-77h-23h-106h-24h-24h-23h-100h-18h-71q12 -144 -35 -245h35h18h118h76h24h106h24h23h24h100h47h41l12 23l59 92v30v31v38v99v31v130v23v91q-9 95 -59 169h-100h-65h-23h-101h-17h-71v30v31
v130v22v198h77h23h24h23h100h18h71q103 119 -12 238h-24h-17h-118h-24h-17h-106h-77h-23h-101h-17h-71q17 -45 35 -76z" />
    <glyph glyph-name="six" unicode="6" horiz-adv-x="775" 
d="M12 1247v-1097q192 -179 394 -156t307 163l6 67v296q34 297 -404 276l1 381q83 71 155 -8l-1 -191l253 -182l-4 431l-13 40q-171 159 -391 128q-195 -20 -303 -148zM407 594l-2 -345l-46 -39l-50 48l-1 330l48 33z" />
    <glyph glyph-name="seven" unicode="7" horiz-adv-x="713" 
d="M9 1104l8 16l64 104h399v-120l-287 -1100h319q-25 83 0 151l231 901v295l-72 96h-662v-343z" />
    <glyph glyph-name="eight" unicode="8" horiz-adv-x="741" 
d="M16 1255v-470l59 -84l-59 -52v-471q138 -199 364.5 -182t319.5 189v451l-54 72l58 71l1 480q-201 181 -398.5 157t-290.5 -161zM383 581l29 -39v-310l-17 -37l-68 -2l-18 50v292l25 46h49zM383 1201l29 -39v-310l-17 -37l-68 -2l-18 50v292l25 46h49z" />
    <glyph glyph-name="nine" unicode="9" horiz-adv-x="636" 
d="M0 1048v-285q175 -160 415 -131v-396q-69 -71 -157 -13v224l-255 176l1 -458q355 -336 723 7l2 1060l-20 82q-120 104 -253 130h-157q-329 -58 -299 -396zM434 1185v-303l-28 -56l-67 1l-21 57v304l29 38h53z" />
    <glyph glyph-name="colon" unicode=":" horiz-adv-x="349" 
d="M-300 1010q0 61 45.5 107t105.5 46q59 0 99.5 -43.5t40.5 -108.5q0 -66 -43 -110.5t-103 -44.5q-58 0 -101.5 45.5t-43.5 108.5zM-300 474q0 62 45.5 108t105.5 46q59 0 99.5 -43.5t40.5 -108.5q0 -66 -43 -110.5t-103 -44.5q-58 0 -101.5 45.5t-43.5 107.5z" />
    <glyph glyph-name="semicolon" unicode=";" horiz-adv-x="374" 
d="M65 78q-2 -184 -112 -307q376 -17 335 391h-56zM15 482q0 62 46 109t107 47q60 0 101 -44t41 -111q0 -66 -43.5 -111.5t-104.5 -45.5q-59 0 -103 46t-44 110z" />
    <glyph glyph-name="greater" unicode="&#x3e;" horiz-adv-x="575" 
d="M-12 1026q100 156 256 205v-1023l-128 -204h335q-53 81 -49 776q3 438 164 438q94 0 242 -149v392h-820v-435zM458 224v1057q150 -85 350 -221l-10 363l-385 -6l-40 -1408l225 -5z" />
    <glyph glyph-name="question" unicode="?" horiz-adv-x="832" 
d="M-5 1391v-453q191 80 315 158l-1 241h139q77 -536 -236 -576l-1 -374h315q-23 328 256 433v158v453q-450 275 -787 -40zM210 164q0 68 50 118.5t116 50.5q64 0 108.5 -47.5t44.5 -119.5t-47 -121t-113 -49q-64 0 -111.5 50t-47.5 118z" />
    <glyph glyph-name="at" unicode="@" horiz-adv-x="579" 
 />
    <glyph glyph-name="A" unicode="A" horiz-adv-x="580" 
d="M-8 234l-59 -59v-177h295v118l59 59l59 -59v-118h295l-26 62v129l-42 59l-118 1220h-354zM336 470l-108 1l54 322z" />
    <glyph glyph-name="B" unicode="B" horiz-adv-x="678" 
d="M12 1466v-33l33 -34v-1335l-33 -34v-33h334h165l137 107v515l-77 72l76 73v568l-134 134h-501zM308 549h100v-403h-100v403zM313 1232h100v-334h-100v334z" />
    <glyph glyph-name="C" unicode="C" horiz-adv-x="636" 
d="M119 1452l-114 -159v-1253l45 -45h478l81 88l1 80v172l-120 -113h-257v957l68 68h956l224 205h-1362z" />
    <glyph glyph-name="D" unicode="D" horiz-adv-x="665" 
d="M5 1470v-33l33 -34v-1335l-33 -34l-3 -36h538l100 100v1238l-134 134h-501zM306 1236h100v-1004h-100v1004z" />
    <glyph glyph-name="E" unicode="E" horiz-adv-x="774" 
d="M0 0v63l38 38v1259l-35 36v57h1414l-162 -196h-921v-443h303l82 -83v-80l-86 -87h-310v-367h438l-132 -197h-629z" />
    <glyph glyph-name="F" unicode="F" horiz-adv-x="774" 
d="M0 0v64l39 39v1278l-36 36v58h1435l-164 -199h-935v-450h307l84 -84v-108l-88 -88h-314v-447l40 -36l1 -63h-369z" />
    <glyph glyph-name="G" unicode="G" horiz-adv-x="653" 
d="M126 1456l-76 -60l-38 -99v-1253l45 -45h478l45 47l1 772l46 46v68h-319v-68l46 -45v-593h-114v957l68 68h956l224 205h-1362z" />
    <glyph glyph-name="H" unicode="H" horiz-adv-x="810" 
d="M473 1447l58 -58l-5 -1395l5 3h302l-69 61l-1 1389h-290zM-17 1447l58 -58l-5 -1395l5 3h302l-69 61v526h260l2 263l-263 2v598h-145h-145z" />
    <glyph glyph-name="I" unicode="I" horiz-adv-x="310" 
d="M0 1447l58 -58l1 -1395l-1 3h302l-69 61l-1 1389h-290z" />
    <glyph glyph-name="J" unicode="J" horiz-adv-x="602" 
d="M580 285l1 1199l-147 1l-116 -89l2 -1058zM462 -8l119 72v268l-264 3l-61 -66l-153 3l-100 179v-381l81 -78h378z" />
    <glyph glyph-name="K" unicode="K" horiz-adv-x="623" 
d="M3 1465v-1469h235v548h117v-548h235v646l-59 59l59 59v502l-59 59h-175l2 -529l-116 2v553z" />
    <glyph glyph-name="L" unicode="L" horiz-adv-x="598" 
d="M0 1453l58 -58v-1392h597l-71 61l1 171h-295v1218h-290z" />
    <glyph glyph-name="M" unicode="M" horiz-adv-x="1169" 
d="M436 1362v-1355h318l-45 46l45 -46l-45 46v956l45 45h46l46 -45v-956l45 -46h274v183l-46 45v1092l-91 91h-288l-56 -46h-21l-45 45h-130zM17 1362v-1355h318l-45 46l45 -46l-45 46v956l45 45h46l46 -45v-956l45 -46h274v183l-46 45v1092l-91 91h-288l-56 -46h-21l-45 45
h-130z" />
    <glyph glyph-name="N" unicode="N" horiz-adv-x="751" 
d="M17 1362v-1355h318l-45 46l45 -46l-45 46v956l45 45h46l46 -45v-956l45 -46h274v183l-46 45v1092l-91 91h-288l-56 -46h-21l-45 45h-130z" />
    <glyph glyph-name="O" unicode="O" horiz-adv-x="672" 
d="M70 1458l-35 -33l-16 -47l-1 -54v-1243l33 -53l45 -30h488l62 36l15 74v1294l-21 41l-41 23l-32 6h-448zM320 1105l35 2l34 -40l2 -702l-35 -35h-33l-35 36v701z" />
    <glyph glyph-name="P" unicode="P" horiz-adv-x="690" 
d="M2 1466v-33l33 -34v-1335l-33 -34v-33h337l1 54l-37 16v464h234l100 100v701l-134 134h-501zM310 1236h100v-467h-100v467z" />
    <glyph glyph-name="Q" unicode="Q" horiz-adv-x="672" 
d="M70 1458l-35 -33l-16 -47l-1 -54v-1243l33 -53l45 -30h488l50 19l26 53l1 38l1 1314l-31 33l-32 11l-32 6h-448zM323 1140l35 -2l31 -71l2 -38v-664l-35 -35h-33l-35 36v701z" />
    <glyph glyph-name="R" unicode="R" horiz-adv-x="673" 
d="M-32 1464v-55l36 -35v-1282l-38 -45v-52h273v529l38 48l79 -107v-470h235v646l-59 59l59 59v646l-59 59h-564zM372 1236v-411h-117v411h117z" />
    <glyph glyph-name="S" unicode="S" horiz-adv-x="812" 
d="M258 1499l-73 -20l-55 -21l-37 -20l-18 -20l-31 -33l-24 -89v-304l18 -61l19 -41l36 -40l367 -195l36 -33v-360l-18 -61l-18 -20l-93 3l-36 57v366l-18 20l-256 101h-37v-487l18 -101l19 -41l18 -20l73 -40l55 -21l91 -20h257l92 20l36 21l37 20l55 61l18 40v528l-18 40
l-73 81l-331 163l-36 40v284l18 20h111l18 -20v-223l18 -20l256 -142h37v426l-18 20l-19 20l-18 21l-36 40l-55 41l-73 20h-312z" />
    <glyph glyph-name="T" unicode="T" horiz-adv-x="686" 
d="M0 1444v-384l133 133l98 35l3 -1014l-136 -214h486l-126 204l-1 1022l104 -35l125 -140v391z" />
    <glyph glyph-name="U" unicode="U" horiz-adv-x="853" 
d="M477 1302l-25 -25l-27 -26l27 -25l25 -25v-841l-25 -27h-27l-25 27v1070l-357 -179l-25 -25l51 -51v-1070l25 -52l27 -26l76 -25h203l52 25l25 26l25 25v-51l51 -25h306v103l-25 25l-26 24v1327z" />
    <glyph glyph-name="V" unicode="V" horiz-adv-x="890" 
d="M665 1377l26 -52l-148 -988l-25 -26h-24l-25 26v49l-103 1009l-342 -3l-25 -23l25 -25l202 -1346h538l249 1382z" />
    <glyph glyph-name="W" unicode="W" horiz-adv-x="1169" 
d="M684 52l4 1355h-270v0l-6 -1002l-45 -45l-46 1l-46 45l3 956l-45 46h-227l-5 -1320l91 -91h91l197 -1l56 46h21l45 -45h130zM1103 50l-2 1288l-48 68l-219 1l-3 -1003l-45 -45h-46l-46 46l-92 -409l197 -1l56 46h21l45 -45h130z" />
    <glyph glyph-name="X" unicode="X" horiz-adv-x="901" 
d="M63 1172l47 -29l8 -30l505 -1086l-31 -28l308 3l-475 1032l-176 324l-19 -12zM629 1361l-569 -1340l-43 -20l255 -2l14 34l577 1330z" />
    <glyph glyph-name="Y" unicode="Y" horiz-adv-x="642" 
d="M587 286l4 1146l-249 -186l-1 -550l-105 2l-1 468l-181 -2l-18 -17l-37 -32l1 -630l72 -66l74 -1h184v-123zM472 -1l113 75v251l-255 4l-60 -64h-116l-134 89v-280l82 -75h370z" />
    <glyph glyph-name="Z" unicode="Z" horiz-adv-x="790" 
d="M134 1473l-82 -54l-26 -54v-383l26 28l28 54l136 136h81l56 -54l-301 -1012l-54 -108l28 -28h654l26 28l28 26l28 28v437l-56 -136l-26 -28l-28 -28l-27 -26l-27 -28h-81l-28 28l-28 26v56l355 1038v54h-682z" />
    <glyph glyph-name="bracketleft" unicode="[" horiz-adv-x="282" 
 />
    <glyph glyph-name="backslash" unicode="\" horiz-adv-x="318" 
 />
    <glyph glyph-name="bracketright" unicode="]" horiz-adv-x="312" 
 />
    <glyph glyph-name="a" unicode="a" horiz-adv-x="522" 
d="M82 986l-54 -63l1 -7v-193l24 -24l121 96h72v-96h-48l-97 -72l-24 -25l-72 -72v-434l8 -29l40 -43l24 -24h169l24 24l24 -24h217v24l-24 48v844l-72 72zM246 482h48v-169l-5 -40l-10 -19l-9 -13h-48v217z" />
    <glyph glyph-name="b" unicode="b" horiz-adv-x="559" 
d="M5 1431v-1440h180l30 30h30l30 -30h150l60 60v810l-60 60h-210v180l120 120zM275 711v-450h-60v450h60z" />
    <glyph glyph-name="c" unicode="c" horiz-adv-x="486" 
d="M110 919l-92 -69v-806l46 -46h346l46 46l17 20l6 26v207l-115 -92h-92l-47 46l1 366l49 58h94l110 -81v256l-67 69h-302z" />
    <glyph glyph-name="d" unicode="d" horiz-adv-x="495" 
d="M137 1198l22 -22l10 -2l-10 2l32 -2l44 -44l22 -43v-153l-22 -22l-183 -1l-32 -17l-20 -26l-5 -44v-764l14 -29l9 -13l16 -14l26 -10h88l65 22h65v-22h175l2 1480zM191 693h66v-439l-22 -20h-22l-22 22v437z" />
    <glyph glyph-name="e" unicode="e" horiz-adv-x="486" 
d="M110 919l-92 -69v-806l46 -46h346l46 46l17 20l6 26v207h-23l-92 -92h-92l-23 23l-24 23l1 23l115 115l46 23l46 24l46 46v368l-67 69h-302zM272 712v-115l-23 -23h-23v138h46z" />
    <glyph glyph-name="f" unicode="f" horiz-adv-x="294" 
d="M74 1422l-64 -58v-1367h286v22l-87 110l-1 109v418l66 44v0v197l-66 52l1 300l43 -1l22 -22v-219l176 110v241l-66 66z" />
    <glyph glyph-name="g" unicode="g" horiz-adv-x="516" 
d="M499 -76v-7l3 1020h-60l-30 1h-90l-30 -30h-30l-30 30h-90l-60 1l-60 -60l-2 -810l29 -30l30 -30l60 -1h150v-83zM230 218l1 450h60l-1 -450h-60zM405 -376l92 69v230l-208 3l-49 -58h-94l-110 81v-256l67 -69h302z" />
    <glyph glyph-name="h" unicode="h" horiz-adv-x="495" 
d="M13 1323v-1326h196l24 2l-2 -2v22l-22 21v631l18 39l31 -2l16 -37v-674h218v25l-22 22v801l-13 26l-9 17l-33 18l-32 4h-131l-41 -10l-2 54v478z" />
    <glyph glyph-name="i" unicode="i" horiz-adv-x="313" 
d="M77 1280l-31 -31l-31 -30v-158l62 -57h122l31 31l31 30v154l-31 30l-31 31h-122zM169 943l-154 -123v-61l31 -31v-612l-31 -31v-92h246v950h-92z" />
    <glyph glyph-name="j" unicode="j" horiz-adv-x="290" 
d="M245 -113l3 1050h-60l-30 1h-72l10 1l-60 -60l-1 -984zM151 -376l92 69v230l-208 3l-49 -58h-94l-110 81v-256l67 -69h302zM88 1260l-31 -31l-31 -30v-158l62 -57h122l31 31l31 30v154l-31 30l-31 31h-122z" />
    <glyph glyph-name="k" unicode="k" horiz-adv-x="521" 
d="M-9 1135l16 -21v-1117h198v463h99v-463h199v546l-50 50l50 50v408l-50 50h-148l2 -402l-117 -1l1 518l-13 27z" />
    <glyph glyph-name="l" unicode="l" horiz-adv-x="252" 
d="M-4 1230l31 -32l-1 -1168l-30 -33h220v1316l-31 31z" />
    <glyph glyph-name="m" unicode="m" horiz-adv-x="847" 
d="M151 957l-155 -93v-87l31 25l31 -61v-742h216l-31 31l31 -31l-31 31v649l31 31h31l31 -31v-649l31 -31h186v124l-31 31v741l-62 62h-196l-38 -31h-14l-30 31h-31zM431 957l-155 -93v-87l31 25l31 -61v-742h216l-31 31v649l31 31h31l31 -31v-649l31 -31h186v124l-31 31
v741l-62 62h-196l-38 -31h-14l-30 31h-31z" />
    <glyph glyph-name="n" unicode="n" horiz-adv-x="577" 
d="M172 965l-155 -93v-87l31 25l31 -61v-742h216l-31 31v649l31 31h31l31 -31v-649l31 -31h186v124l-31 31v741l-62 62h-196l-38 -31h-14l-30 31h-31z" />
    <glyph glyph-name="o" unicode="o" horiz-adv-x="473" 
d="M54 925l-24 -21l-11 -30l-1 -34v-789l23 -34l31 -19h338l34 12l18 34l1 24l-6 834l-15 21l-22 7l-22 4h-310zM229 723l24 -1l22 -45l1 -24v-422l-24 -22h-23l-24 23v445z" />
    <glyph glyph-name="p" unicode="p" horiz-adv-x="495" 
d="M327 -169l-22 22l-10 2l10 -2l-32 2l-44 44l-21 43l-2 35l22 22h183l32 17l20 26l6 44l3 764l-14 29l-9 13l-16 14l-26 10l-44 1l44 -1l-44 1h-44l-65 -22h-65v22l-183 1l2 -1362zM289 223h-63l-1 439l22 20h22l22 -22z" />
    <glyph glyph-name="q" unicode="q" horiz-adv-x="559" 
d="M485 -452l1 1373l-177 1l-30 -30h-30l-30 30h-90l-60 1l-60 -60l-2 -810l29 -30l30 -30l60 -1h150v-113l-121 -120zM217 202l1 450h60l-1 -450h-60z" />
    <glyph glyph-name="r" unicode="r" horiz-adv-x="449" 
d="M160 938l-153 -112v-45l22 -23v-675l-22 -23v-67h337l-67 67l-23 45v541l46 45h44l23 -23l45 -67v315h-112l-46 -45l-22 22l-23 45h-49z" />
    <glyph glyph-name="s" unicode="s" horiz-adv-x="566" 
d="M184 933l-50 -13l-38 -12l-25 -13l-13 -13l-21 -20l-17 -55v-190l13 -38l12 -25l13 -13l13 -12l252 -122l25 -20l1 -225l-13 -38l-13 -12l-63 2l-25 36v227l-13 13l-177 63h-25v-303l13 -64l12 -25l13 -12l50 -26l38 -12l64 -13h177l63 13l25 12l25 13l13 13l13 12l12 13
l13 25v329l-13 25l-50 50l-228 101l-12 13l-13 13v177l13 12h75l13 -12v-139l13 -13l177 -88h25v265l-38 38l-13 12l-12 13l-38 25l-51 13h-215z" />
    <glyph glyph-name="t" unicode="t" horiz-adv-x="269" 
d="M-35 1125v0l-1 -27l43 -43v-1014l22 -43h194v43l-22 22v582l63 44v172l-63 43v216l12 24v86l-12 19v22z" />
    <glyph glyph-name="u" unicode="u" horiz-adv-x="605" 
d="M331 889l-35 -35l18 -17l17 -17v-574l-17 -18h-18l-17 18v730l-244 -122l-17 -17l35 -35v-730l17 -35l18 -18l52 -17h139l35 17l17 18l17 17v-35l35 -17h209v70l-17 17l-18 17v905z" />
    <glyph glyph-name="v" unicode="v" horiz-adv-x="692" 
d="M454 941l18 -36l-101 -675l-17 -18h-17l-17 18v33l-70 690l-234 -2l-17 -16l17 -17l138 -920h368l170 945z" />
    <glyph glyph-name="w" unicode="w" horiz-adv-x="828" 
d="M717 8l91 52l-2 907l-62 -1h-123l3 -680l-31 -31h-31l-31 30l-3 649l-31 31h-124l-31 -156l1 -30l-1 30l1 -30l3 -710l62 -62h62l134 1l38 31h14l30 -31h31zM437 7l155 94l-1 87l-30 -25l-32 60l-3 742l-184 -1l2 -680l-31 -31h-31l-31 31l-3 649l-31 31h-62l-31 -1h-31
l-28 1l-1 -737l-33 -71l-15 32l-1 -94l79 -85l65 -3l-31 -1l31 1h165l38 32h14l30 -31h31z" />
    <glyph glyph-name="x" unicode="x" horiz-adv-x="593" 
d="M25 817l34 -20l5 -22l352 -756l-22 -20l214 2l-330 720l-122 225l-15 -7zM420 949l-397 -935l-29 -14l177 -1l10 24l18 43l10 20l18 42l19 43l8 21l19 43l9 21l19 43l9 20l9 21l18 43l10 21l38 90l197 456z" />
    <glyph glyph-name="y" unicode="y" horiz-adv-x="559" 
d="M488 -121v1050h-57l-118 -95l-5 -566h-103v556l-134 1l-63 -60l1 -704l29 -30l30 -30l60 -1h150v-113zM394 -384l92 69v230l-208 3l-49 -58h-94l-110 81v-256l67 -69h302z" />
    <glyph glyph-name="z" unicode="z" horiz-adv-x="529" 
d="M86 953l-53 -35l-17 -35v-248l17 18l18 35l88 88h53l18 -17l18 -18l-195 -655l-35 -70l18 -18h424l53 53v283l-36 -88l-17 -18l-18 -18l-18 -17l-17 -18h-53l-18 18l-18 17v36l230 672v35h-442z" />
    <glyph glyph-name="glyph89" 
 />
    <glyph glyph-name="glyph90" 
 />
    <glyph glyph-name="nonbreakingspace" unicode="&#xa0;" 
 />
    <glyph glyph-name="glyph90" 
 />
    <glyph glyph-name="glyph91" 
 />
    <glyph glyph-name="ch255" 
 />
    <glyph glyph-name="ch256" 
 />
    <glyph glyph-name="ch123" unicode="-" horiz-adv-x="471" 
 />
    <glyph glyph-name="ch123" unicode="&#x2010;" horiz-adv-x="471" 
 />
  </font>
</defs>
</svg>
